<svg xmlns="http://www.w3.org/2000/svg" viewBox="0 0 623 267"><defs><style>.cls-1{fill:#133ea5;}.cls-2{fill:#e37600;}</style></defs><title>laranja svg</title><g id="Camada_2" data-name="Camada 2"><g id="Camada_1-2" data-name="Camada 1"><path class="cls-1" d="M86.31,46.69V58c0,9.09-5.91,14.77-15.22,14.77S56.55,67.35,56.55,58V42.6c0-7.5-4.08-11.13-10.22-11.13s-10,3.63-10,11.13v91.3c0,7.49,3.86,11.13,10,11.13s10.22-3.64,10.22-11.13V118.46c0-9.32,5.23-14.77,14.54-14.77s15.22,5.68,15.22,14.77v11.35c0,24.53-13.86,41.11-40.43,41.11C20,170.92,5,155.7,5,128.9V47.6c0-26.8,15-42,40.88-42C72.45,5.58,86.31,22.16,86.31,46.69Z"/><path class="cls-1" d="M98.59,65.83c0-6.36,4.13-11,11-11s11,4.61,11,11v92.53c0,6.36-4.13,11-11,11s-11-4.61-11-11Z"/><path class="cls-1" d="M134.2,65.83c0-7,3.82-11,10.18-11,5.88,0,8.42,2.86,10.17,7.47l18.28,50.24V65.83c0-6.68,3.66-11,10.5-11s10.49,4.61,10.49,11v92.53c0,6.36-3.5,11-10,11-5.56,0-8.42-3.18-10-7.47l-18.6-51.67v48.17c0,6.2-4,11-10.5,11s-10.49-4.77-10.49-11Z"/><path class="cls-1" d="M207.49,67.42c0-6.36,4.13-11,11-11h32c5.4,0,9.22,3.5,9.22,9.22s-3.82,9.22-9.22,9.22h-21V102.4h16.22a8.85,8.85,0,0,1,9.22,9.22c0,5.72-4,9.22-9.22,9.22H229.43V149.3h21.14c5.41,0,9.23,3.65,9.23,9.22s-3.82,9.22-9.23,9.22H218.46c-6.84,0-11-4.61-11-10.81Z"/><path class="cls-2" d="M81.31,42.69V54c0,9.09-5.91,14.77-15.22,14.77S51.55,63.35,51.55,54V38.6c0-7.5-4.08-11.13-10.22-11.13s-10,3.63-10,11.13v91.3c0,7.49,3.86,11.13,10,11.13s10.22-3.64,10.22-11.13V114.46c0-9.32,5.23-14.77,14.54-14.77s15.22,5.68,15.22,14.77v11.35c0,24.53-13.86,41.11-40.43,41.11C15,166.92,0,151.7,0,124.9V43.6c0-26.8,15-42,40.88-42C67.45,1.58,81.31,18.16,81.31,42.69Z"/><path class="cls-2" d="M93.59,61.83c0-6.36,4.13-11,11-11s11,4.61,11,11v92.53c0,6.36-4.13,11-11,11s-11-4.61-11-11Z"/><path class="cls-2" d="M129.2,61.83c0-7,3.82-11,10.18-11,5.88,0,8.42,2.86,10.17,7.47l18.28,50.24V61.83c0-6.68,3.66-11,10.5-11s10.49,4.61,10.49,11v92.53c0,6.36-3.5,11-10,11-5.56,0-8.42-3.18-10-7.47l-18.6-51.67v48.17c0,6.2-4,11-10.5,11s-10.49-4.77-10.49-11Z"/><path class="cls-2" d="M202.49,63.42c0-6.36,4.13-11,11-11h32c5.4,0,9.22,3.5,9.22,9.22s-3.82,9.22-9.22,9.22h-21V98.4h16.22a8.85,8.85,0,0,1,9.22,9.22c0,5.72-4,9.22-9.22,9.22H224.43V145.3h21.14c5.41,0,9.23,3.65,9.23,9.22s-3.82,9.22-9.23,9.22H213.46c-6.84,0-11-4.61-11-10.81Z"/><path class="cls-1" d="M339.86,160.83c0-6.36,4.13-11,11-11s11,4.61,11,11v92.53c0,6.36-4.14,11-11,11s-11-4.61-11-11Z"/><path class="cls-1" d="M430.64,178V186c0,6.36-4.14,10.33-10.66,10.33s-10.17-3.81-10.17-10.33V175.14c0-5.25-2.86-7.79-7.15-7.79s-7,2.54-7,7.79v63.91c0,5.25,2.7,7.79,7,7.79s7.15-2.54,7.15-7.79V228.24c0-6.52,3.66-10.33,10.17-10.33s10.66,4,10.66,10.33v7.95c0,17.17-9.7,28.77-28.3,28.77-18.13,0-28.62-10.65-28.62-29.41V178.64c0-18.76,10.49-29.41,28.62-29.41C420.94,149.23,430.64,160.83,430.64,178Z"/><path class="cls-1" d="M463.23,208.84v44.52c0,6.36-4.14,11-11,11s-11-4.61-11-11V160.83c0-6.36,4.13-11,11-11s11,4.61,11,11v42.45l15.58-45.47c1.74-5.4,4.76-7.95,10.49-7.95s11,3.66,11,9.86a13.33,13.33,0,0,1-1,4.77l-15.42,41.65,16.22,42.45a14.36,14.36,0,0,1,1.11,5.4c0,6.36-5.09,10.34-11,10.34-5.72,0-9.06-3-11.13-8.9Z"/><path class="cls-1" d="M509.64,162.42c0-6.36,4.14-11,11-11h32c5.41,0,9.22,3.5,9.22,9.22s-3.81,9.22-9.22,9.22h-21V197.4H547.8a8.84,8.84,0,0,1,9.22,9.22c0,5.72-4,9.22-9.22,9.22H531.58V244.3h21.15c5.41,0,9.22,3.65,9.22,9.22s-3.81,9.22-9.22,9.22H520.61c-6.83,0-11-4.61-11-10.81Z"/><path class="cls-1" d="M604.08,170.05v83.31c0,6.36-4.14,11-11,11-7,0-11-4.61-11-11V170.05h-9.7c-5.25,0-9.22-3.65-9.22-9.38a8.85,8.85,0,0,1,9.22-9.22h41.34a8.85,8.85,0,0,1,9.22,9.22c0,5.73-4,9.38-9.22,9.38Z"/><path class="cls-2" d="M334.86,156.83c0-6.36,4.13-11,11-11s11,4.61,11,11v92.53c0,6.36-4.14,11-11,11s-11-4.61-11-11Z"/><path class="cls-2" d="M425.64,174V182c0,6.36-4.14,10.33-10.66,10.33s-10.17-3.81-10.17-10.33V171.14c0-5.25-2.86-7.79-7.15-7.79s-7,2.54-7,7.79v63.91c0,5.25,2.7,7.79,7,7.79s7.15-2.54,7.15-7.79V224.24c0-6.52,3.66-10.33,10.17-10.33s10.66,4,10.66,10.33v7.95c0,17.17-9.7,28.77-28.3,28.77-18.13,0-28.62-10.65-28.62-29.41V174.64c0-18.76,10.49-29.41,28.62-29.41C415.94,145.23,425.64,156.83,425.64,174Z"/><path class="cls-2" d="M458.23,204.84v44.52c0,6.36-4.14,11-11,11s-11-4.61-11-11V156.83c0-6.36,4.13-11,11-11s11,4.61,11,11v42.45l15.58-45.47c1.74-5.4,4.76-7.95,10.49-7.95s11,3.66,11,9.86a13.33,13.33,0,0,1-1,4.77l-15.42,41.65,16.22,42.45a14.36,14.36,0,0,1,1.11,5.4c0,6.36-5.09,10.34-11,10.34-5.72,0-9.06-3-11.13-8.9Z"/><path class="cls-2" d="M504.64,158.42c0-6.36,4.14-11,11-11h32c5.41,0,9.22,3.5,9.22,9.22s-3.81,9.22-9.22,9.22h-21V193.4H542.8a8.84,8.84,0,0,1,9.22,9.22c0,5.72-4,9.22-9.22,9.22H526.58V240.3h21.15c5.41,0,9.22,3.65,9.22,9.22s-3.81,9.22-9.22,9.22H515.61c-6.83,0-11-4.61-11-10.81Z"/><path class="cls-2" d="M599.08,166.05v83.31c0,6.36-4.14,11-11,11-7,0-11-4.61-11-11V166.05h-9.7c-5.25,0-9.22-3.65-9.22-9.38a8.85,8.85,0,0,1,9.22-9.22h41.34a8.85,8.85,0,0,1,9.22,9.22c0,5.73-4,9.38-9.22,9.38Z"/><path class="cls-1" d="M315.8,28.17V253c0,8.1-5.72,14-15.19,14-9.68,0-15.18-5.88-15.18-14V28.17H260c-7.26,0-12-4.88-12-12.17,0-7.09,4.75-11.54,12-11.54h79.23c7.26,0,12.76,4.66,12.76,11.75,0,7.3-5.5,12-12.76,12Z"/><path class="cls-2" d="M310,23.71V250.34c0,8.11-5.73,14-15.19,14-9.68,0-15.19-5.87-15.19-14V23.71H253.19c-7.27,0-12.77-4.66-12.77-12,0-7.09,5.5-11.75,12.77-11.75h83.22c7.27,0,12.77,4.66,12.77,11.75,0,7.3-5.5,12-12.77,12Z"/></g></g></svg>